<?xml version="1.0" encoding="UTF-8" standalone="no"?>
<!-- Created with Inkscape (http://www.inkscape.org/) -->

<svg
   width="50mm"
   height="50.000004mm"
   viewBox="0 0 50 50.000004"
   version="1.1"
   id="svg5"
   xml:space="preserve"
   inkscape:version="1.2.2 (b0a84865, 2022-12-01)"
   sodipodi:docname="icon-green.svg"
   inkscape:export-filename="Documents/Studente/holding-page/assets/studente-ico-.svg"
   inkscape:export-xdpi="4.2760944"
   inkscape:export-ydpi="4.2760944"
   xmlns:inkscape="http://www.inkscape.org/namespaces/inkscape"
   xmlns:sodipodi="http://sodipodi.sourceforge.net/DTD/sodipodi-0.dtd"
   xmlns="http://www.w3.org/2000/svg"
   xmlns:svg="http://www.w3.org/2000/svg"><sodipodi:namedview
     id="namedview7"
     pagecolor="#505050"
     bordercolor="#ffffff"
     borderopacity="1"
     inkscape:showpageshadow="0"
     inkscape:pageopacity="0"
     inkscape:pagecheckerboard="1"
     inkscape:deskcolor="#505050"
     inkscape:document-units="mm"
     showgrid="false"
     inkscape:zoom="5.2017083"
     inkscape:cx="94.488189"
     inkscape:cy="99.582669"
     inkscape:window-width="1440"
     inkscape:window-height="900"
     inkscape:window-x="0"
     inkscape:window-y="0"
     inkscape:window-maximized="0"
     inkscape:current-layer="layer2" /><defs
     id="defs2" /><g
     inkscape:groupmode="layer"
     id="layer2"
     inkscape:label="Layer 2"><path
       style="display:inline;fill:none;fill-opacity:1;stroke:#1b861e;stroke-width:0.831462;stroke-dasharray:none;stroke-opacity:1"
       d="m 15.146577,23.746235 c 0.89505,-0.688947 1.720323,-1.07511 3.242637,-1.116806 1.839952,0.05549 2.861384,1.255413 4.636678,1.253664 2.439773,-0.05215 3.369772,-1.433963 5.059477,-1.498057 1.405729,-0.0074 1.789215,0.249912 2.162291,0.466376"
       id="path3639"
       sodipodi:nodetypes="ccccc"
       transform="matrix(1.7459433,0,0,1.7544284,-19.72958,-16.488488)" /><path
       style="display:inline;fill:none;fill-opacity:1;stroke:#1b861e;stroke-width:0.831462;stroke-dasharray:none;stroke-opacity:1"
       d="m 29.59979,23.521852 c 1.116468,-1.869191 2.45029,-3.087145 3.778599,-4.658411 0.574116,-0.724761 1.09016,-1.303149 1.880185,-1.888205 0.348604,-0.289626 0.870281,-0.328569 1.145045,-0.265548 0.648641,0.179117 0.646785,0.393722 0.807851,0.607667 0.24178,0.381136 0.04084,0.77872 -0.07951,1.145524 -0.292772,0.582222 -0.62859,0.862277 -0.972679,1.195077 -1.364409,1.152846 -1.955267,1.750759 -3.235871,2.812415 -0.777493,0.697491 -0.766526,0.623502 -1.893794,1.897257"
       id="path3708"
       sodipodi:nodetypes="ccccccccc"
       transform="matrix(1.7459433,0,0,1.7544284,-19.72958,-16.488488)" /><path
       style="display:inline;fill:none;fill-opacity:1;stroke:#1b861e;stroke-width:0.831462;stroke-dasharray:none;stroke-opacity:1"
       d="m 33.862077,21.671338 c 0.667693,0.293325 1.399703,0.522333 1.780708,1.102345 0.173578,0.24279 0.226566,0.515728 0.09893,0.833824 -0.530522,0.662783 -1.498129,1.107022 -2.628668,1.469793 -1.322743,0.341914 -2.710039,0.668639 -4.663764,0.86209 -1.730391,0.211141 -6.179264,0.306658 -7.982556,0.100492 -2.671056,-0.541493 -8.486164,-1.771627 -3.356602,-4.363572 2.441298,-1.027838 5.715623,-1.652971 7.541918,-1.650382 1.918186,-0.08904 3.898198,0.0099 7.023203,0.701364"
       id="path3710"
       sodipodi:nodetypes="ccccccccc"
       transform="matrix(1.7459433,0,0,1.7544284,-19.72958,-16.488488)" /><path
       style="display:inline;fill:none;fill-opacity:1;stroke:#1b861e;stroke-width:0.831462;stroke-dasharray:none;stroke-opacity:1"
       d="m 31.497747,23.41011 c 0.531613,0.395854 1.229638,0.416593 2.371585,0.431962 0.800599,-0.0379 1.052884,-0.191626 1.564142,-0.439115 0.293777,-0.105342 0.339186,-0.432 0.344327,-0.248706 -0.379954,6.401269 -5.249939,9.211893 -10.75921,9.44664 C 22.000098,32.49694 16.04476,31.35957 15.067512,23.611248"
       id="path3712"
       sodipodi:nodetypes="cccccc"
       transform="matrix(1.7459433,0,0,1.7544284,-19.72958,-16.488488)" /></g></svg>
